<?xml version="1.0" encoding="UTF-8"?>
<svg width="128px" height="128px" viewBox="0 0 128 128" version="1.1" xmlns="http://www.w3.org/2000/svg" xmlns:xlink="http://www.w3.org/1999/xlink">
    <!-- Generator: Sketch 53.2 (72643) - https://sketchapp.com -->
    <title>Claw</title>
    <desc>Created with Sketch.</desc>
    <g id="Page-1" stroke="none" stroke-width="1" fill="none" fill-rule="evenodd">
        <g id="Green" transform="translate(0.000000, -29.000000)">
            <g id="Claw" transform="translate(0.000000, 29.000000)">
                <rect id="Rectangle" fill="#5BC67F" x="0" y="0" width="128" height="128" rx="8"></rect>
                <g id="np_claw_2259405_5BC67F" transform="translate(13.000000, 13.000000)" fill="#2A2E25" fill-rule="nonzero">
                    <path d="M51,57.516 C66.152,57.516 78.438,71.914 78.438,89.672 C78.438,107.434 66.153,89.672 51,89.672 C35.847,89.672 23.562,107.434 23.562,89.672 C23.562,71.91 35.847,57.516 51,57.516 Z" id="Path"></path>
                    <path d="M68.766,16.395 C79.614,25.2075 69.40662,54.579 59.0707,52.223 C48.7347,49.8675 53.3441,19.36 65.7269,15.703 L70.8089,0.433 L68.7659,16.398 L68.766,16.395 Z" id="Path"></path>
                    <path d="M31.098,15.719 C44.696,18.9378 48.266,49.832 37.9339,52.199 C27.6019,54.5662 18.4959,25.09 28.0628,16.414 L26.0042,0.453 L31.1019,15.719 L31.098,15.719 Z" id="Path"></path>
                    <path d="M93.625,43.145 C98.457,39.3833 100.5234,33.3989 100.418,28.129 C101.836,34.2384 100.668,42.598 96.9375,48.121 C99.5937,58.312 88.5547,78.223 78.8595,73.707 C65.5975,67.5273 83.8087,37.137 93.6215,43.145 L93.625,43.145 Z" id="Path"></path>
                    <path d="M8.375,43.145 C3.543,39.3833 1.4766,33.3989 1.582,28.129 C0.164,34.2384 1.33591,42.598 5.0625,48.121 C2.4063,58.312 13.4453,78.223 23.1405,73.707 C36.4025,67.5273 18.1913,37.137 8.3745,43.145 L8.375,43.145 Z" id="Path"></path>
                </g>
            </g>
        </g>
    </g>
</svg>