<?xml version="1.0" encoding="UTF-8"?>
<svg width="128px" height="128px" viewBox="0 0 128 128" version="1.1" xmlns="http://www.w3.org/2000/svg" xmlns:xlink="http://www.w3.org/1999/xlink">
    <!-- Generator: Sketch 53.2 (72643) - https://sketchapp.com -->
    <title>Two</title>
    <desc>Created with Sketch.</desc>
    <g id="Page-1" stroke="none" stroke-width="1" fill="none" fill-rule="evenodd">
        <g id="Green" transform="translate(-568.000000, -29.000000)">
            <g id="Two" transform="translate(568.000000, 0.000000)">
                <rect id="Rectangle" fill="#5BC67F" x="0" y="29" width="128" height="128" rx="8"></rect>
                <path d="M93.98,113.178 L93.98,131 L35.154,131 L35.154,116.126 C39.7100228,112.463315 44.0426461,108.912351 48.152,105.473 C52.2613539,102.033649 56.8619745,97.9913566 61.954,93.346 C64.4553458,91.1126555 66.2866609,88.7006796 67.448,86.11 C68.6093391,83.5193204 69.19,81.0626783 69.19,78.74 C69.19,76.3279879 68.6093391,74.4520067 67.448,73.112 C66.4653284,72.1293284 61.2840469,71.638 51.904,71.638 L42.926,71.772 C41.7646609,71.8613338 40.3353418,71.906 38.638,71.906 C38.3699987,70.6553271 38.0796682,68.198685 37.767,64.536 C37.4543318,60.873315 37.298,58.1486756 37.298,56.362 C47.3927171,54.5753244 55.7899665,53.682 62.49,53.682 C71.6020456,53.682 78.8603063,55.4016495 84.265,58.841 C89.6696937,62.2803505 92.372,68.1986247 92.372,76.596 C92.372,80.6160201 91.3446769,84.7476454 89.29,88.991 C87.2353231,93.2343546 83.2153633,97.6786434 77.23,102.324 C73.2099799,105.450682 67.9393659,109.157979 61.418,113.446 L93.98,113.178 Z" id="2" fill="#2A2E25" fill-rule="nonzero"></path>
            </g>
        </g>
    </g>
</svg>