<?xml version="1.0" encoding="UTF-8"?>
<svg fill="#FFFFFF" width="100pt" height="100pt" version="1.1" viewBox="0 0 100 100" xmlns="http://www.w3.org/2000/svg">
 <g>
  <path d="m91.609 85.406c-4.207-5.0859-3.1875-12-2.1875-15.734 0.94141-2.332 1.4727-4.8125 1.4727-7.4062 0-4.6328-1.6328-8.9375-4.4141-12.551-2.7109 16.848-19.414 29.895-39.719 30.215 4.6641 3.2812 10.648 5.2617 17.176 5.2617 4.7695 0 9.2383-1.0625 13.117-2.9102 5.9609 3.9961 13.379 4.5469 13.379 4.5469 3.207-0.003906 1.1758-1.4219 1.1758-1.4219z"/>
  <path d="m83.426 44.922c0-17.402-16.789-31.562-37.422-31.562-20.637 0-37.422 14.16-37.422 31.562 0 3.3984 0.67188 6.8047 2.0039 10.105 1.543 5.6875 3.0703 15.898-2.8008 23.797 1.9922-0.21484 10.953-1.418 18.195-6.2695l0.82422-0.55078 0.89453 0.42188c5.5781 2.6523 11.906 4.0586 18.309 4.0586 20.629 0 37.418-14.16 37.418-31.562z"/>
 </g>
</svg>
