<?xml version="1.0" encoding="UTF-8"?>
<svg fill="#FFFFFF" width="100pt" height="100pt" version="1.1" viewBox="0 0 100 100" xmlns="http://www.w3.org/2000/svg">
 <g>
  <path d="m65.66 28.82c-4.5859-4.3438-10.602-6.543-16.922-6.1992-11.934 0.64453-21.383 10.523-21.516 22.488-0.0625 5.9766 2.1797 11.645 6.3086 15.953 3.7422 3.9102 5.8047 8.9062 5.8047 14.07v1.0938c-0.003907 0.15234 0.007812 0.30469 0.039062 0.45703 0.054688 0.25391 0.15625 0.48047 0.29297 0.68359 0.011719 0.019531 0.027343 0.035156 0.039062 0.054687 0.058594 0.078125 0.11719 0.15625 0.1875 0.22656 0.027344 0.027343 0.054688 0.054687 0.085938 0.078124 0.058593 0.054688 0.11719 0.10547 0.18359 0.15234 0.039063 0.027344 0.078126 0.054688 0.12109 0.082032 0.058594 0.035156 0.11719 0.066406 0.17969 0.097656 0.050781 0.023437 0.10156 0.050781 0.15234 0.070312 0.058593 0.023438 0.12109 0.039063 0.18359 0.058594 0.058594 0.015625 0.11328 0.035156 0.17188 0.046875 0.066406 0.011719 0.13672 0.015625 0.20312 0.019531 0.054688 0.003906 0.10547 0.015625 0.16016 0.015625 0.15625 0 0.30859-0.023437 0.45312-0.054687l17.473-3.793c0.015625-0.003906 0.027343-0.011719 0.046875-0.015625 0.085937-0.019531 0.16406-0.046875 0.24219-0.078125 0.046875-0.015625 0.09375-0.03125 0.13672-0.054687 0.070312-0.03125 0.13281-0.070313 0.19922-0.11328 0.046875-0.027344 0.09375-0.054687 0.14062-0.089844 0.058594-0.042968 0.10938-0.089843 0.16016-0.13672 0.042969-0.039063 0.085938-0.074219 0.125-0.11719 0.046875-0.050781 0.089844-0.10938 0.13281-0.16797 0.035157-0.046876 0.070313-0.089844 0.097657-0.13672 0.035156-0.0625 0.066406-0.125 0.097656-0.19141 0.023437-0.050781 0.050781-0.10156 0.070313-0.15625 0.023437-0.066406 0.039062-0.13281 0.058593-0.19922 0.015625-0.0625 0.03125-0.12109 0.042969-0.18359 0.003906-0.023438 0.011719-0.046875 0.015625-0.066406 0.52734-4.2773 2.5039-8.3828 5.5625-11.562 4.1172-4.2539 6.3867-9.8594 6.3867-15.781 0-6.3281-2.5273-12.203-7.1172-16.551zm-2.1484 29.543c-3.3203 3.4492-5.5586 7.8164-6.4219 12.43l-13.797 2.9961c-0.32812-5.7109-2.7383-11.168-6.8711-15.488-3.4062-3.5547-5.25-8.2227-5.1992-13.145 0.10547-9.8633 7.8945-18.008 17.73-18.539 5.2188-0.28906 10.176 1.5312 13.953 5.1094 3.7852 3.582 5.8672 8.4258 5.8672 13.637 0.003906 4.875-1.8633 9.4922-5.2617 13z"/>
  <path d="m58.328 76.23l-17.508 3.8008c-1.0781 0.23438-1.7656 1.3008-1.5312 2.3789 0.20313 0.9375 1.0312 1.5742 1.9531 1.5742 0.14062 0 0.28125-0.015625 0.42578-0.046875l17.508-3.8008c1.0781-0.23438 1.7656-1.3008 1.5312-2.3789-0.23438-1.0742-1.3008-1.7578-2.3789-1.5273z"/>
  <path d="m60.793 83.488c-0.23438-1.0781-1.2969-1.7617-2.3789-1.5312l-17.508 3.8008c-1.0781 0.23438-1.7656 1.3008-1.5273 2.3789 0.20312 0.9375 1.0312 1.5742 1.9531 1.5742 0.14062 0 0.28125-0.015626 0.42578-0.046876l17.508-3.8008c1.0781-0.23047 1.7617-1.2969 1.5273-2.375z"/>
  <path d="m56.82 89.031c0.10938-0.82031-0.47266-1.5742-1.293-1.6836-0.82031-0.10547-1.5742 0.46875-1.6836 1.293-0.24609 1.9141-1.9062 3.3594-3.8477 3.3594-1.0352 0-2.0156-0.40625-2.7539-1.1445-0.20703-0.20703-0.38281-0.42969-0.51563-0.65234-0.42578-0.71094-1.3516-0.94141-2.0586-0.51562-0.71094 0.42578-0.94141 1.3477-0.51562 2.0586 0.26172 0.43359 0.58594 0.84766 0.96875 1.2305 1.3047 1.3047 3.0352 2.0234 4.875 2.0234 3.4414 0 6.3789-2.5664 6.8242-5.9688z"/>
  <path d="m11.922 46.082h9.332c0.82812 0 1.5-0.67188 1.5-1.5s-0.67188-1.5-1.5-1.5h-9.332c-0.82812 0-1.5 0.67188-1.5 1.5s0.67188 1.5 1.5 1.5z"/>
  <path d="m88.078 43.082h-9.332c-0.82812 0-1.5 0.67188-1.5 1.5s0.67188 1.5 1.5 1.5h9.332c0.82812 0 1.5-0.67188 1.5-1.5s-0.67188-1.5-1.5-1.5z"/>
  <path d="m48.5 6.5v9.332c0 0.82812 0.67188 1.5 1.5 1.5s1.5-0.67188 1.5-1.5v-9.332c0-0.82812-0.67188-1.5-1.5-1.5s-1.5 0.67188-1.5 1.5z"/>
  <path d="m77.988 16.594c-0.58594-0.58594-1.5352-0.58594-2.1211 0l-6.5977 6.5977c-0.58594 0.58594-0.58594 1.5352 0 2.1211 0.29297 0.29297 0.67578 0.4375 1.0625 0.4375 0.38281 0 0.76953-0.14453 1.0625-0.4375l6.5977-6.5977c0.58203-0.58594 0.58203-1.5352-0.003907-2.1211z"/>
  <path d="m23.074 73.008c0.38281 0 0.76953-0.14453 1.0625-0.4375l6.5977-6.5977c0.58594-0.58594 0.58594-1.5352 0-2.1211-0.58594-0.58594-1.5352-0.58594-2.1211 0l-6.5977 6.5977c-0.58594 0.58594-0.58594 1.5352 0 2.1211 0.28906 0.28906 0.67188 0.4375 1.0586 0.4375z"/>
  <path d="m22.012 18.715l6.5977 6.5977c0.29297 0.29297 0.67578 0.4375 1.0625 0.4375 0.38281 0 0.76953-0.14453 1.0625-0.4375 0.58594-0.58594 0.58594-1.5352 0-2.1211l-6.5977-6.5977c-0.58594-0.58594-1.5352-0.58594-2.1211 0-0.58984 0.58594-0.58984 1.5352-0.003906 2.1211z"/>
  <path d="m77.988 70.445l-6.5977-6.5977c-0.58594-0.58594-1.5352-0.58594-2.1211 0-0.58594 0.58594-0.58594 1.5352 0 2.1211l6.5977 6.5977c0.29297 0.29297 0.67578 0.4375 1.0625 0.4375 0.38281 0 0.76953-0.14453 1.0625-0.4375 0.58203-0.58594 0.58203-1.5352-0.003907-2.1211z"/>
  <path d="m56.109 49.367c-0.72266-0.49219-1.6602-0.5-2.3906-0.019532l-2.6055 1.7148c-0.67969 0.44531-1.5508 0.44531-2.2305 0l-2.6055-1.7148c-0.73047-0.48047-1.6719-0.47266-2.3945 0.019532-0.72266 0.49219-1.0703 1.3672-0.89062 2.2188l2.7383 12.918v5.4727c0 0.82813 0.67188 1.5 1.5 1.5s1.5-0.67187 1.5-1.5v-4.1484h2.5195v2.9492c0 0.82812 0.67188 1.5 1.5 1.5s1.5-0.67188 1.5-1.5v-4.2656l2.7422-12.926c0.19141-0.85156-0.15625-1.7227-0.88281-2.2188zm-7.6562 13.461l-2.0859-9.832 0.87109 0.57422c1.6797 1.1055 3.8516 1.1055 5.5273 0l0.87109-0.57422-2.0859 9.832z"/>
  <path d="m50.008 32.086c1.5742 0 3.1133 0.27344 4.5781 0.8125 0.17187 0.0625 0.34766 0.09375 0.51953 0.09375 0.60938 0 1.1836-0.375 1.4062-0.98047 0.28516-0.77734-0.10938-1.6406-0.88672-1.9258-1.7969-0.66406-3.6875-1-5.6172-1-0.82812 0-1.5 0.67187-1.5 1.5 0 0.82812 0.67188 1.5 1.5 1.5z"/>
  <path d="m60.738 33.137c-0.62109-0.54688-1.5703-0.48438-2.1172 0.13672-0.54688 0.62109-0.48438 1.5703 0.13672 2.1172 2.1602 1.9023 3.6719 4.4883 4.2461 7.2852 0.14453 0.71094 0.76953 1.1992 1.4688 1.1992 0.10156 0 0.20312-0.011719 0.30469-0.03125 0.8125-0.16797 1.3359-0.96094 1.1641-1.7695-0.70312-3.4336-2.5508-6.6055-5.2031-8.9375z"/>
 </g>
</svg>
