<?xml version="1.0" encoding="UTF-8"?>
<svg width="34px" height="34px" viewBox="0 0 34 34" version="1.1" xmlns="http://www.w3.org/2000/svg" xmlns:xlink="http://www.w3.org/1999/xlink">
    <title>Combined Shape</title>
    <g id="Symbols" stroke="none" stroke-width="1" fill="none" fill-rule="evenodd">
        <g id="Player-Card" transform="translate(-207.000000, -86.000000)" fill="#FFFFFF">
            <g id="energy" transform="translate(207.000000, 81.000000)">
                <path d="M30,5 C32.209139,5 34,6.790861 34,9 L34,35 C34,37.209139 32.209139,39 30,39 L4,39 C1.790861,39 2.705415e-16,37.209139 0,35 L0,9 C-2.705415e-16,6.790861 1.790861,5 4,5 L30,5 Z M23.07114,7.17412868 L8.18206892,22.4731097 C7.79703277,22.8687778 8.06413088,23.5068107 8.59599463,23.5068107 L13.6581782,23.5068107 L8.95237804,35.1569344 C8.71534755,35.7652801 9.4553404,36.2821306 9.9294132,35.8258713 L24.8184843,20.5256736 C25.2023661,20.1311918 24.9364224,19.4622549 24.4034042,19.4622549 L19.3411911,19.4621637 L24.0481752,7.84306558 C24.2852057,7.23471991 23.5452129,6.71786943 23.07114,7.17412868 Z" id="Combined-Shape"></path>
            </g>
        </g>
    </g>
</svg>