<?xml version="1.0" encoding="UTF-8"?>
<svg width="516px" height="528px" viewBox="0 0 516 528" version="1.1" xmlns="http://www.w3.org/2000/svg" xmlns:xlink="http://www.w3.org/1999/xlink">
    <title>Group</title>
    <defs>
        <linearGradient x1="-8.77886803%" y1="54.6370283%" x2="111.896479%" y2="34.0186373%" id="linearGradient-1">
            <stop stop-color="#FBC193" offset="0%"></stop>
            <stop stop-color="#EA6100" offset="100%"></stop>
        </linearGradient>
        <rect id="path-2" x="44.4723655" y="32" width="440" height="437"></rect>
    </defs>
    <g id="Symbols" stroke="none" stroke-width="1" fill="none" fill-rule="evenodd">
        <g id="Player-Card" transform="translate(-24.000000, 110.000000)">
            <g id="Group" transform="translate(24.000000, -110.000000)">
                <g id="Rectangle" transform="translate(264.472366, 250.500000) rotate(9.000000) translate(-264.472366, -250.500000) ">
                    <use fill="#D8D8D8" xlink:href="#path-2"></use>
                    <use fill="url(#linearGradient-1)" xlink:href="#path-2"></use>
                </g>
                <g id="np_monster_2213755_FFFFFF" opacity="0.177176339" style="mix-blend-mode: soft-light;" transform="translate(169.000000, 351.000000) rotate(13.000000) translate(-169.000000, -351.000000) translate(30.000000, 202.000000)" fill="#FFFFFF" fill-rule="nonzero">
                    <path d="M210,134.871243 C204.548181,128.388098 198.526222,122.408956 192,117 L192,127.394007 C192,130.204614 193.114202,132.909194 195.103886,134.897716 C197.093571,136.886373 199.799479,138 202.61147,138 C205.397008,137.986743 208.063289,136.859833 210,134.871175 L210,134.871243 Z" id="Path"></path>
                    <path d="M79.71875,85.4005469 C72.691676,85.3871724 65.75831,83.822248 59.4125,80.8263084 C55.28456,86.9119391 53.053352,94.0946475 53,101.450957 L53,136 C73.867472,108.848013 104.88824,85.4022589 138.5,85.4022589 C172.11176,85.4022589 203.15852,108.849383 224,136 L224,101.450957 C223.946562,94.0946475 221.715543,86.9119391 217.5875,80.8263084 C196.105796,90.9513352 170.47016,83.7822547 157.32368,64 L119.67632,64 C110.76551,77.3618167 95.776334,85.387193 79.71704,85.4005469 L79.71875,85.4005469 Z" id="Path"></path>
                    <path d="M197.500134,53 C200.282618,53 202.960134,51.8450028 204.928758,49.7824676 C206.897517,47.7199324 208,44.9149493 208,42 L187,42 C187,44.9150197 188.102483,47.7200732 190.071242,49.7824676 C192.04,51.8450028 194.71745,53 197.499866,53 L197.500134,53 Z" id="Path"></path>
                    <path d="M182,122.295573 L182,109.329686 C175.476896,104.954402 168.41552,101.488565 161,99 L161,122.295573 C161,128.209897 165.698624,133 171.5,133 C177.301376,133 182,128.209897 182,122.295573 Z" id="Path"></path>
                    <path d="M198.000342,74 C216.567145,73.973335 232.317627,60.3599787 235,42 L219.356471,42 C219.356471,53.7865813 209.799365,63.3333333 198,63.3333333 C186.200635,63.3333333 176.643529,53.7865813 176.643529,42 L161,42 C163.682919,60.3599787 179.433197,73.973376 197.999658,74 L198.000342,74 Z" id="Path"></path>
                    <path d="M150,117.334448 L150,96.8698995 C143.043792,95.7100335 135.956208,95.7100335 129,96.8698995 L129,117.334448 C129,123.227294 133.698624,128 139.5,128 C145.301376,128 150,123.227294 150,117.334448 Z" id="Path"></path>
                    <path d="M198,0 C179.433025,0.02666496 163.682397,13.6400213 161,32 L235,32 C232.317056,13.6400213 216.566633,0.026624 198,0 L198,0 Z" id="Path"></path>
                    <path d="M86,127.393973 L86,117 C79.4737775,122.409278 73.4518186,128.3884 68,134.857949 C69.9366096,136.859836 72.6028901,137.986764 75.3883942,138 C78.2004528,138 80.9064292,136.886377 82.895978,134.897726 C84.8856625,132.909074 86,130.204571 86,127.394041 L86,127.393973 Z" id="Path"></path>
                    <path d="M80,0 C61.4330255,0.02666496 45.6823975,13.6400213 43,32 L117,32 C114.317056,13.6400213 98.5666328,0.026624 80,0 Z" id="Path"></path>
                    <path d="M117,122.295573 L117,99 C109.58448,101.488771 102.523104,104.954402 96,109.329686 L96,122.295573 C96,128.209897 100.698624,133 106.5,133 C112.301376,133 117,128.209897 117,122.295573 Z" id="Path"></path>
                    <path d="M43,173.798156 C75.0739711,167.61179 108.079295,168.251759 139.887994,175.638059 C169.960991,183.157608 210.142305,179.424627 235,175.798051 C230.292367,164.265298 224.144347,153.385827 216.689428,143.399581 C211.96848,147.639417 205.580452,149.546013 199.312599,148.559266 C193.031431,147.572656 187.536859,143.826227 184.336188,138.333074 C179.588611,142.439457 173.267156,144.22625 167.079192,143.199569 C160.891227,142.159611 155.476886,138.426595 152.329474,133 C144.461114,139.866269 132.725318,139.866269 124.856958,133 C121.709649,138.426254 116.295205,142.159577 110.10724,143.199569 C103.919276,144.226182 97.5978214,142.439593 92.8502441,138.333074 C89.6495727,143.826227 84.1550014,147.572519 77.8738331,148.559266 C71.6059796,149.545876 65.2179515,147.639315 60.4970038,143.399581 C53.4821563,152.812414 47.6144293,163.011983 43,173.797934 L43,173.798156 Z" id="Path"></path>
                    <path d="M181.958226,190.440824 C166.893771,190.654007 151.868977,189.068475 137.204536,185.710904 C104.818114,178.276125 71.1885707,178.102851 38.7361628,185.177948 C37.6811176,188.868562 37.0934733,192.692542 37,196.529825 C37,202.925297 39.2837373,204.910451 40.0316265,205.589906 C46.3487688,211.132648 64.2711,208.854257 85.0383162,206.202814 C102.747307,203.604649 120.601943,202.152349 138.5,201.859351 C156.396005,202.139152 174.251668,203.591449 191.961684,206.189511 C212.715566,208.854291 230.63653,211.119312 236.968373,205.576604 C237.716263,204.910417 240,202.911824 240,196.516522 C239.906513,192.892422 239.358952,189.281624 238.39738,185.79089 C219.726989,188.708828 200.857616,190.26772 181.957815,190.440995 L181.958226,190.440824 Z" id="Path"></path>
                    <path d="M191.626956,217.266658 C174.35322,214.720009 156.944736,213.293205 139.499316,213 C122.051844,213.293334 104.646096,214.720009 87.371676,217.266658 C76.336704,218.986667 65.18169,219.919972 54,220.079989 L54,245 L225,245 L225,220.053365 C224.345378,220.053365 223.77092,220.146699 223.089622,220.146699 C212.549182,219.800042 202.048756,218.840044 191.628358,217.266705 L191.626956,217.266658 Z M118.124316,234.333288 L107.436816,234.333288 L107.436816,223.666644 L118.124316,223.666644 L118.124316,234.333288 Z M155.532276,234.333288 L128.813526,234.333288 L128.813526,223.666644 L155.532276,223.666644 L155.532276,234.333288 Z M176.907276,234.333288 L166.219776,234.333288 L166.219776,223.666644 L176.907276,223.666644 L176.907276,234.333288 Z" id="Shape"></path>
                    <path d="M171,292.625125 C171,294.049431 171.556489,295.420006 172.55024,296.427883 C173.54399,297.435761 174.895494,298 176.300081,298 L181.600061,298 L181.600061,287.250456 L192.20002,287.250456 L192.20002,298 L202.79998,298 L202.79998,287.250456 L213.399939,287.250456 L213.399939,298 L218.699919,298 C220.104405,298 221.455908,297.435658 222.44976,296.427883 C223.443612,295.420109 224,294.049534 224,292.625125 L224,255 L171,255 L171,292.625125 Z" id="Path"></path>
                    <path d="M267.25,101 C261.310496,101 256.5,105.764609 256.5,111.647458 L256.5,143.58983 L235,143.58983 L235,150.963322 C239.689752,158.576339 243.6,166.628543 246.67708,175 C264.750496,171.925559 277.973168,156.420272 278,138.267123 L278,111.64848 C278,108.82692 276.871267,106.111802 274.855634,104.115531 C272.84,102.119124 270.098802,101.001158 267.250138,101.001158 L267.25,101 Z" id="Path"></path>
                    <path d="M80.5001344,53 C83.2826176,53 85.9601344,51.8450028 87.9287584,49.7824676 C89.8975168,47.7199324 91,44.9149493 91,42 L70,42 C70,44.9150197 71.1024832,47.7200732 73.0712416,49.7824676 C75.04,51.8450028 77.7174496,53 80.4998656,53 L80.5001344,53 Z" id="Path"></path>
                    <path d="M80.0003417,74 C98.5671447,73.973335 114.317627,60.3599787 117,42 L101.356471,42 C101.356471,53.7865813 91.7993646,63.3333333 80,63.3333333 C68.2006354,63.3333333 58.6435293,53.7865813 58.6435293,42 L43,42 C45.6829194,60.3599787 61.433197,73.973376 79.9996583,74 L80.0003417,74 Z" id="Path"></path>
                    <path d="M54,292.625125 C54,294.049431 54.5564894,295.420006 55.5502398,296.427883 C56.5439902,297.435761 57.8954935,298 59.3000814,298 L64.6000611,298 L64.6000611,287.250456 L75.2000204,287.250456 L75.2000204,298 L85.7999796,298 L85.7999796,287.250456 L96.3999389,287.250456 L96.3999389,298 L101.699919,298 C103.104405,298 104.455908,297.435658 105.44976,296.427883 C106.443612,295.420109 107,294.049534 107,292.625125 L107,255 L54,255 L54,292.625125 Z" id="Path"></path>
                    <path d="M43,143.590418 L21.5,143.590418 L21.5,111.647605 C21.5,105.764675 16.689504,101 10.75,101 C4.810496,101 0,105.764675 0,111.647605 L0,138.266616 C0.02687328,156.420697 13.249504,171.926335 31.32292,175 C34.4001032,166.628427 38.310248,158.576113 43,150.96299 L43,143.590418 Z" id="Path"></path>
                </g>
            </g>
        </g>
    </g>
</svg>