<?xml version="1.0" encoding="UTF-8"?>
<svg fill="#FFFFFF" width="100pt" height="100pt" version="1.1" viewBox="0 0 100 100" xmlns="http://www.w3.org/2000/svg">
 <path d="m34.316 15.379c-0.94922 0.035156-1.832 0.5-2.3984 1.2617-0.5625 0.76562-0.75 1.7422-0.50781 2.6602l6.8477 25.652 32.961 5.0352-32.965 5.0547-6.8438 25.641v0.003906c-0.32031 1.1914 0.089844 2.4609 1.0469 3.2383 0.95703 0.77734 2.2852 0.91797 3.3828 0.35938l62.977-31.488c1.0703-0.52344 1.7461-1.6133 1.7461-2.8008 0-1.1914-0.67578-2.2812-1.7461-2.8047l-62.977-31.488c-0.47266-0.23828-0.99609-0.34766-1.5234-0.32422zm-27.148 10.219v-0.003906c-1.7266 0-3.1289 1.4023-3.1289 3.1289 0 1.7266 1.4023 3.1289 3.1289 3.1289h17.047c1.7266 0 3.1289-1.4023 3.1289-3.1289 0-1.7266-1.4023-3.1289-3.1289-3.1289zm-4.8203 21.27h-0.003906c-1.6953 0.11719-2.9844 1.5703-2.9023 3.2695 0.078125 1.6992 1.5039 3.0234 3.2031 2.9805h27.82c0.83984 0.019531 1.6523-0.30469 2.2539-0.89063 0.60156-0.58984 0.94141-1.3945 0.94141-2.2344 0-0.84375-0.33984-1.6484-0.94141-2.2344-0.60156-0.58984-1.4141-0.91016-2.2539-0.89062h-27.82c-0.097656-0.003907-0.19922-0.003907-0.30078 0zm4.8203 21.246c-0.83984-0.019531-1.6562 0.30078-2.2539 0.89062-0.60156 0.58594-0.94141 1.3906-0.94141 2.2344 0 0.83984 0.33984 1.6445 0.94141 2.2344 0.59766 0.58594 1.4141 0.91016 2.2539 0.89062h17.047c0.83984 0.019531 1.6523-0.30469 2.2539-0.89062 0.60156-0.58984 0.94141-1.3945 0.94141-2.2344 0-0.84375-0.33984-1.6484-0.94141-2.2344-0.60156-0.58984-1.4141-0.91016-2.2539-0.89062z"/>
</svg>
