<?xml version="1.0" encoding="UTF-8"?>
<svg width="38px" height="37px" viewBox="0 0 38 37" version="1.1" xmlns="http://www.w3.org/2000/svg" xmlns:xlink="http://www.w3.org/1999/xlink">
    <title>np_star_1359493_FFFFFF</title>
    <g id="Symbols" stroke="none" stroke-width="1" fill="none" fill-rule="evenodd">
        <g id="Player-Card" transform="translate(-297.000000, -84.000000)" fill="#FFFFFF" fill-rule="nonzero">
            <g id="points" transform="translate(297.000000, 81.000000)">
                <g id="np_star_1359493_FFFFFF" transform="translate(0.000000, 3.000000)">
                    <path d="M27.3500647,10.7305218 L35.5632059,11.9327944 C37.8924394,12.2731623 38.8244742,15.1789825 37.1421504,16.8486997 L31.2083032,22.7382489 C30.5397103,23.4020262 30.236274,24.3554257 30.3946721,25.291832 L31.8068953,33.5959838 C32.2070523,35.9514567 29.7761042,37.7497937 27.6919588,36.6406371 L20.342303,32.7272904 C19.515312,32.2870264 18.5265936,32.2870264 17.6996025,32.7306774 L10.3601907,36.660974 C8.27937466,37.7752025 5.8417253,35.9819374 6.23688828,33.6264645 L7.62909296,25.3188447 C7.78582216,24.3841291 7.47903518,23.429039 6.80876057,22.7669524 L0.862961999,16.8925756 C-0.824355755,15.2262832 0.102685157,12.3187029 2.43025401,11.9732024 L10.6399805,10.7522892 C11.5636921,10.615125 12.3623413,10.024137 12.7758155,9.17239351 L16.4389054,1.60996253 C17.4776488,-0.533831676 20.4871705,-0.537212986 21.5310359,1.60318951 L25.2124797,9.15564995 C25.6259752,10.0057027 26.4263104,10.5950045 27.3499794,10.7304736 L27.3500647,10.7305218 Z" id="Path"></path>
                </g>
            </g>
        </g>
    </g>
</svg>