<?xml version="1.0" encoding="UTF-8"?>
<svg width="128px" height="128px" viewBox="0 0 128 128" version="1.1" xmlns="http://www.w3.org/2000/svg" xmlns:xlink="http://www.w3.org/1999/xlink">
    <!-- Generator: Sketch 53.2 (72643) - https://sketchapp.com -->
    <title>Three</title>
    <desc>Created with Sketch.</desc>
    <g id="Page-1" stroke="none" stroke-width="1" fill="none" fill-rule="evenodd">
        <g id="Black" transform="translate(-710.000000, -29.000000)">
            <g id="Three" transform="translate(710.000000, 0.000000)">
                <rect id="Rectangle" fill="#2A2E25" x="0" y="29" width="128" height="128" rx="8"></rect>
                <path d="M74.349,92.006 C80.6916984,92.4526689 85.2476528,94.2393177 88.017,97.366 C90.7863472,100.492682 92.171,104.378643 92.171,109.024 C92.171,115.724034 89.6696917,121.329644 84.667,125.841 C79.6643083,130.352356 71.6690549,132.608 60.681,132.608 C53.2662963,132.608 45.0030456,131.89334 35.891,130.464 L38.571,115.724 C46.6110402,116.081335 51.8816542,116.26 54.383,116.26 C59.2963579,116.26 62.8919886,115.634673 65.17,114.384 C67.4480114,113.133327 68.587,110.676685 68.587,107.014 C68.587,104.42332 67.7606749,102.48034 66.108,101.185 C64.4553251,99.8896602 62.1103485,99.0633351 59.073,98.706 C56.0356515,98.3486649 51.7030281,98.17 46.075,98.17 L46.075,85.708 C51.7030281,85.708 55.9686521,85.5516682 58.872,85.239 C61.7753478,84.9263318 64.0086588,84.1893391 65.572,83.028 C67.1353412,81.8666609 67.917,80.0353458 67.917,77.534 C67.917,75.3899893 67.8723338,73.6926729 67.783,72.442 C67.6936662,71.1913271 67.3810027,70.3873351 66.845,70.03 C66.1303298,69.5833311 62.9590281,69.36 57.331,69.36 C52.2389745,69.36 46.03037,69.5386649 38.705,69.896 L37.365,55.692 C47.102382,54.3519933 54.9189705,53.682 60.815,53.682 C69.3910429,53.682 76.4259725,55.3346501 81.92,58.64 C87.4140275,61.9453499 90.161,67.3052963 90.161,74.72 C90.161,78.4720188 88.9326789,82.0229833 86.476,85.373 C84.0193211,88.7230167 79.9770281,90.799996 74.349,91.604 L74.349,92.006 Z" id="3" fill="#5BC67F" fill-rule="nonzero"></path>
            </g>
        </g>
    </g>
</svg>